<?xml version="1.0" encoding="UTF-8"?>
<svg id="svg2" width="120" height="60" version="1.1" viewBox="0 0 120 60" xml:space="preserve" xmlns="http://www.w3.org/2000/svg" xmlns:cc="http://creativecommons.org/ns#" xmlns:dc="http://purl.org/dc/elements/1.1/" xmlns:rdf="http://www.w3.org/1999/02/22-rdf-syntax-ns#"><metadata id="metadata8"><rdf:RDF><cc:Work rdf:about=""><dc:format>image/svg+xml</dc:format><dc:type rdf:resource="http://purl.org/dc/dcmitype/StillImage"/><dc:title/></cc:Work></rdf:RDF></metadata><defs id="defs6"><clipPath id="clipPath16"><path id="path18" d="m0 36h36v-36h-36v36z"/></clipPath></defs><g id="g10" transform="matrix(1.7114 0 0 -1.7114 29.5 59.094)"><g id="g12"><g id="g14" clip-path="url(#clipPath16)"><g id="g20" transform="translate(12 28.393)"><path id="path22" d="m0 0-9 2.411c-1.657 0.444-3-0.539-3-2.196v-20c0-1.656 1.343-3.36 3-3.804l9-2.411v26z" fill="#ccd6dd"/></g><g id="g24" transform="translate(24,5.6074)"><path id="path26" d="m0 0 9-2.411c1.656-0.444 3 0.54 3 2.196v20c0 1.657-1.344 3.361-3 3.804l-9 2.411v-26z" fill="#ccd6dd"/></g><g id="g28" transform="translate(24,5.6084)"><path id="path30" d="m0 0-12-3.216v26l12 3.216v-26z" fill="#e1e8ed"/></g><g id="g32" transform="translate(12 26.393)"><path id="path34" d="m0 0-8 2.144c-1.104 0.295-2-0.36-2-1.464v-18.001c0-1.103 0.896-2.24 2-2.535l8-2.144v22z" fill="#55acee"/></g><g id="g36" transform="translate(32 27.465)"><path id="path38" d="m0 0-8 2.144v-22l8-2.144c1.105-0.296 2 0.359 2 1.465v18c0 1.103-0.895 2.239-2 2.535" fill="#55acee"/></g><g id="g40" transform="translate(24,7.6084)"><path id="path42" d="m0 0-12-3.216v22l12 3.216v-22z" fill="#88c9f9"/></g><g id="g44" transform="translate(12 14.494)"><path id="path46" d="m0 0c-0.268-6e-3 -0.595-0.104-0.845-0.145-0.436-0.073-0.329-0.516-0.463-0.443-0.135 0.074-0.475 0.265-0.812 0.658-0.337 0.395 0.25 0.478 0.418 0.622 0.168 0.145-0.317 0.172-0.486 0.333-0.169 0.159-0.47-0.104-0.739 0.276-0.269 0.376-0.101 0.79-0.133 1.179-0.034 0.39 0.436 0.341 0.739 0.334 0.302-2e-3 0.537-0.143 0.537-0.602 0-0.456 0.37-0.708 0.27-0.146-0.101 0.561 0.1 0.658 0.235 0.89 0.134 0.23 0.37 0.55 0.673 1.04 0.221 0.358 0.389 0.283 0.606 0.164v3.345c-0.055 0.044-0.11 0.09-0.165 0.113-0.303 0.132 0.097-0.753-0.138-1.109-0.237-0.357-0.598-0.193-0.97-0.094-0.369 0.099-0.713 0.545-0.443 1.007 0.268 0.462 0.782 0.267 1.051 0.653 0.27 0.385-0.956 0.672-1.394 0.942-0.437 0.27-0.962 0.409-1.4 0.145-0.437-0.264-1.373-0.133-1.743-0.185-0.369-0.054-0.435 0.369-0.503 0.693-0.066 0.322-0.652 0.329-1.257 0.338-0.606 0.01-1.741-0.281-1.547-1.759 0.068-0.514 0.605-0.124 0.707-0.036 0.1 0.088 0.605-0.2 0.671-0.637 0.068-0.438 0.034-0.887-0.099-1.232-0.137-0.345 0.336-1.006 0.604-1.612 0.269-0.606 0.572-0.687 0.706-0.723 0.135-0.036 0.908-0.587 0.875-0.996-0.034-0.411 0.706-0.992 1.009-1.34 0.303-0.35 0.494-0.662 0.887-0.846 0.393-0.182 0.852-1.035 1.054-1.165 0.155-0.099 0.418-0.451 0.576-0.58-0.208-0.242-0.612-0.748-0.612-1.029 0-0.383 0.441-1.103 0.608-1.3 0.168-0.196 0.65-0.442 0.751-0.85 0.101-0.407-0.07-1.646-0.373-1.907-0.304-0.262-0.414-1.043-0.414-1.043s0.107-0.293 0.465-0.124c0.309 0.144 0.777 0.567 1.094 0.801v6.37z" fill="#5c913b"/></g><g id="g48" transform="translate(24 20.269)"><path id="path50" d="m0 0v6.314c-0.04-3e-3 -0.068-0.011-0.11-0.014-0.209-0.011-0.483-0.135-0.78-0.32-0.024 5e-3 -0.046 0.016-0.07 0.021-0.895 0.175-1.312-1.205-2.039-1.152-0.73 0.052-1.7 0.343-2.332-0.514-0.631-0.858-0.776-1.53 0-1.295 0.777 0.236 1.312 1.426 1.7 1.089 0.388-0.336 0.29-0.72-0.632-1.105s-1.917-0.816-2.451-0.96c-0.534-0.143-0.656-0.534-0.292-0.821 0.364-0.288-0.219-0.472-0.825-1.02-0.607-0.548 0.146-0.512 0.656-0.705s0.898 0.323 1.117 0.932c0.217 0.609 1.158 1.522 1.55 1.544 0.392 0.023 0.392-0.197 0.319-0.602-0.013-0.072 1e-3 -0.103 0.01-0.139-0.17-0.54-0.309-1.029-0.365-1.306-0.026-0.134-0.031-0.35-0.027-0.595-0.086-3e-3 -0.183-0.021-0.248 0-0.438 0.128-1.434 0.219-1.701-0.043-0.267-0.266-0.412-0.502-0.728-0.723-0.316-0.219-1.603-1.224-1.626-2.084-0.025-0.859-0.049-1.83 0.46-1.721 0.51 0.11 1.749 0.826 2.137 1.288 0.387 0.463 0.921 0.523 1.092 0.156 0.169-0.369 0.048-0.649-0.12-1.354-0.172-0.708 0.11-0.963 0.381-1.468 0.274-0.504 0.491-0.775 0.491-1.189 0-0.412 0.389-0.723 0.97 0.123 0.188 0.269 0.367 0.606 0.536 0.957 0.409 0.469 0.768 0.923 0.758 1.096-0.016 0.281-0.021 0.433-0.024 0.624 0.033 0.082 0.064 0.157 0.091 0.219 0.126 0.293 0.241 0.746 0.362 1.156 7e-3 9e-3 0.013 0.016 0.019 0.024 0.238 0.337 0.185 0.353 0.58 0.756 0.264 0.269 0.254 0.512 0.214 0.678 0.106 0.174 0.134 0.28-0.033 0.235-5e-3 -1e-3 -0.012-3e-3 -0.016-4e-3 -1e-3 0-4e-3 -0.019-5e-3 -0.014-0.023 0.15-0.206-3e-3 -0.501-0.147-0.285-8e-3 -0.567 0.065-0.668 0.368-0.133 0.396-0.602 0.996-0.639 1.336 3e-3 0.041 5e-3 0.077 0.01 0.124 0.013 0.036 0.033 0.066 0.069 0.088 0.038 0.022 0.075 0.03 0.112 0.035 0.041-0.111 0.076-0.28 0.086-0.464 0.027-0.477 0.395-0.196 0.395-0.498s0.53-0.492 0.661-0.548c0.037-0.015 0.094 0.028 0.159 0.098 0.031-0.011 0.06-0.033 0.093-0.037 0.292-0.031 0.922 0.984 1.117 1.164 0.102 0.095 0.105 0.269 0.033 0.394 0.019 8e-3 0.035 0.015 0.054 0.023m-9.142-7.239c-0.437 0.074-0.359 0.023-0.628 0.598-0.269 0.577-0.432 0.743-1.036 0.657-0.606-0.087-0.584-0.136-0.751 0.163-0.072 0.128-0.241 0.082-0.443-0.032v-6.37c0.09 0.115 0.17 0.211 0.228 0.267 0.505 0.476 0.996 1.026 1.466 1.646 0.471 0.621 0.301 0.924 0.536 1.481 0.235 0.558 0.54 0.617 0.943 1.145 0.405 0.531 0.122 0.368-0.315 0.445m-2.59 5.557c-0.1-0.015-0.187-0.011-0.268-0.01v3.344c0.254-0.064 0.512-0.317 0.706-0.735 0.234-0.51 0.605-0.067 0.739-0.374 0.134-0.308 0.875-0.758 0.505-0.742-0.371 0.014-0.74-8e-3 -0.841-0.454-0.102-0.448 0.168-0.795-0.102-0.829-0.269-0.033-0.369-0.142-0.739-0.2" fill="#77b255"/></g><g id="g52" transform="translate(31.407 12.23)"><path id="path54" d="m0 0c-0.133 0.338-0.518 0.713-0.675 0.91-0.159 0.194-0.407 0.313-0.618 0.279-0.212-0.031-0.343 0.092-0.448 0.362-0.107 0.265-0.29 0.232-0.449 0.244-0.158 0.012-0.791-0.119-1.162-0.231-0.368-0.113-0.537-0.252-0.778-0.457-0.382-0.32-0.17-0.105 0-0.423 0.168-0.319-0.186-1.067-0.213-1.543-0.027-0.477 0.676-0.032 0.94-0.039 0.263-0.012 0.185 0.189 0.396 0.314 0.212 0.125 0.349 0.129 0.579-0.172 0.234-0.305 0.537-0.611 0.537-0.883 0-0.269 0.834-0.947 1.152-0.851 0.316 0.097 0.501 0.408 0.791 0.635 0.291 0.224 0.185 0.824 0.264 1.168 0.08 0.341-0.186 0.351-0.316 0.687m-2.403 2.578c0.261-0.402 0.159-0.043 0.504 0.016 0.342 0.058-0.291 0.56-0.502 0.799-0.211 0.238-0.42 0.3-0.606-0.049-0.209-0.399 0.343-0.364 0.604-0.766m3.088-1.432c-0.131 0.217-0.421 0.385-0.739 0.461-0.315 0.077-0.29 0.481-0.606 0.534-0.316 0.054-0.544 0.388-0.686 0.511-0.311 0.266-0.106-0.209 0-0.699 0.107-0.488 0.501-0.246 0.869-0.586 0.37-0.34 0.398-0.015 0.741-0.228 0.341-0.211 0.474-0.52 0.803-0.578 0.329-0.059-0.25 0.369-0.382 0.585m-2.004 5.371c0.183-0.08 0.975-0.171 0.553 0.334-0.422 0.506-0.106 0.299-0.052 0.738 0.052 0.44-0.264 0.525-0.264 0.525 0-0.332-0.211-0.638 0-1.027 0.21-0.389-0.423-0.49-0.237-0.57m-2.092-2.068c0.389-0.166 0.114 0.482 0.244 0.841 0.132 0.357 0.316 0.369 0.555 0.364 0.236-2e-3 0.422 0.191 0.581 0.388 0.157 0.2 0.448 0.455 0.422 0.733-0.027 0.279-0.105 0.482-0.212 0.843-0.106 0.36 0.316 0.368 0.502 0.711 0.183 0.342 0 0 0.421 7e-3 0.421 8e-3 0.238 0.058 0.316 0.218 0.08 0.159 0.133 0.327 0.054 0.68-0.078 0.353-0.37 0.099-0.66 0.177-0.289 0.077 0.106 0.424 0.131 0.78 0.027 0.355 0.397 0.165 0.662 0.125 0.262-0.039 0.341-0.485 0.42-0.597 0.082-0.112 0.896 0.365 1.109 0.641 0.211 0.275-0.186 0.291-0.079 0.403 0.105 0.111-0.632 0.337-0.925 0.469-0.289 0.133-1.028 0.367-1.318 0.649-0.289 0.284-1.397 0.426-1.688 0.337-0.291-0.086-0.476 0.143-0.606 0.406-0.131 0.262-0.686 0.297-0.844 0.467s-0.316-0.127-0.529-0.16c-0.21-0.035-0.29-0.043-0.554 0.209-0.263 0.252 0.08 0.371-0.288 0.621-0.355 0.239-0.813 0.184-1.71 0.593v-6.314c0.157-0.014 0.308-0.037 0.364-0.051 0.131-0.035 0.448-0.574 0.448-0.784 0-0.211 0.159-0.829 0.291-1.196 0.131-0.366 0.42-0.506 0.686-0.818 0.264-0.312 0.394-0.137 0.394-0.137s-0.105 0.544-0.105 0.965c0 0.424 0.316 0.701 0.316 0.701s0.5-0.557 0.529-0.684c0.026-0.128 0.421-0.657 0.449-0.876 0.025-0.219 0.236-0.547 0.624-0.711m-0.362-0.9c-0.053-0.44 0.183-0.201 0.606-0.705 0.423-0.508-0.104-0.395-0.289-0.317-0.185 0.08-0.37 0.131-0.579 0.518-0.213 0.391 0 0.695 0 1.027 0 0 0.315-0.084 0.262-0.523" fill="#5c913b"/></g></g></g></g><g id="g4291" transform="matrix(1.3691 0 0 1.3691 29.5 -2.5157)" stroke-width="1px"><g id="text3455-6" stroke="#fff"><path id="path4285" d="m15.198 29.818c0.0027 0.94624 8e-3 1.893 0.01568 2.8401l-0.28033 0.06092-0.06602-0.01674-1.6914-0.43892c-8e-3 -0.9488-0.01333-1.897-0.01606-2.8445l-4.8805-1.2929c-0.00419-0.70356-0.00612-1.4065-0.0058-2.1089 1.512-2.6263 3.068-5.2155 4.6247-7.7813l2.0335 0.57979 0.0668-0.01382 0.28113-0.05973c-0.05302 2.9983-0.08092 6.0014-0.08369 9.0094l1.4407-0.31007c-9.12e-4 0.68825-5.47e-4 1.3767 0.0011 2.0655zm-2.0143-7.0245c0.0011-0.11002 0.0026-0.25856 0.0046-0.43437 0.0082-0.18263 0.01652-0.36825 0.02498-0.5574 0.0085-0.18903 0.01692-0.36825 0.02532-0.53749 0.01469-0.17446 0.02577-0.30928 0.03332-0.40651-0.02567 0.06542-0.06714 0.15607-0.12443 0.27208-0.06362 0.12742-0.12722 0.2549-0.19079 0.38244-0.06991 0.13897-0.14282 0.27385-0.21875 0.40466-0.06643 0.11363-0.13283 0.22731-0.1992 0.34104-0.84653 1.4071-1.6887 2.8224-2.5194 4.2484l3.1387 0.84356c0.0018-1.5205 0.01028-3.0393 0.02557-4.5564z"/><path id="path4287" d="m24.842 23.619c-0.0089 1.3264-0.10926 2.4667-0.30403 3.422-0.18849 0.94729-0.44949 1.7402-0.78475 2.3788-0.32902 0.63063-0.7228 1.1211-1.1824 1.4714-0.45342 0.34228-0.95067 0.5724-1.4923 0.69015-0.54158 0.11774-1.0403 0.10415-1.4962-0.04094-0.45588-0.14507-0.8506-0.46196-1.1832-0.95056-0.32629-0.49644-0.58443-1.1794-0.77209-2.048-0.18139-0.87628-0.27072-1.9835-0.26379-3.3189 0.0073-1.4012 0.10893-2.5784 0.30032-3.5302 0.19774-0.95987 0.46747-1.7476 0.80662-2.3629 0.33921-0.61532 0.74227-1.0803 1.2079-1.395 0.47207-0.32258 0.98917-0.54349 1.551-0.66284 0.52442-0.1114 1.0094-0.10336 1.4551 0.02405 0.45209 0.11953 0.83897 0.41616 1.1616 0.88997 0.32266 0.47389 0.57118 1.1497 0.74756 2.0281 0.17651 0.87218 0.25804 2.0061 0.24864 3.4048zm-2.1622 0.46371c0.0061-0.97925-0.01463-1.78-0.06442-2.4052-0.04969-0.63144-0.1341-1.1206-0.25432-1.4681-0.12011-0.35401-0.27878-0.58515-0.47651-0.69352-0.19146-0.10969-0.42764-0.13464-0.7086-0.07481-0.29968 0.06381-0.55368 0.19642-0.76187 0.39785-0.20808 0.19484-0.37718 0.49602-0.50675 0.9035-0.12954 0.4074-0.2261 0.93922-0.28854 1.595-0.05611 0.64761-0.08793 1.4556-0.09337 2.4218-0.0054 0.95313 0.02051 1.7439 0.07557 2.3697 0.05509 0.62613 0.14257 1.1209 0.26132 1.4837 0.12501 0.35489 0.28762 0.58982 0.48733 0.70468 0.19974 0.11488 0.44605 0.1406 0.7389 0.07723 0.2804-0.06068 0.5201-0.19158 0.71926-0.39264 0.19918-0.20108 0.36084-0.50583 0.4855-0.91427 0.1309-0.41642 0.22473-0.9494 0.28245-1.5992 0.06398-0.65142 0.09805-1.4528 0.10403-2.4056z"/><path id="path4289" d="m32.643 27.368c0.0017 0.93438 0.0062 1.8694 0.01355 2.805l-2.0267-0.5597c-0.0087-0.93675-0.01415-1.8731-0.01643-2.809l-0.6179-0.17164-0.13632 0.01797-4.1344 0.89323c6.08e-4 -0.69315 0.0023-1.3861 5e-3 -2.0789 1.3897-3.0073 2.7986-6.0081 4.2217-9.0037 0.05039-0.08967 0.10153-0.17873 0.15345-0.2672 0.09297-0.15014 0.18602-0.30018 0.27913-0.45014l2.3709 0.69343c-0.06597 2.9573-0.10296 5.9208-0.11098 8.8904l1.4213 0.39726c-0.0019 0.67885-0.0024 1.3581-0.0015 2.0377zm-1.9933-7.112c0.0015-0.1088 0.0035-0.2557 6e-3 -0.42957 0.0088-0.18034 0.01778-0.36431 0.02693-0.55112 0.0092-0.1869 0.01828-0.36413 0.02733-0.53148 0.01535-0.17256 0.02694-0.30564 0.03489-0.40187-0.02587 0.06449-0.06759 0.1538-0.12515 0.26805-0.06393 0.12548-0.1278 0.25102-0.1916 0.37659-0.07017 0.13683-0.14328 0.26959-0.21936 0.39826-0.05697 0.09569-0.11391 0.19141-0.17081 0.28716-3.3e-5 7.1e-5 -0.02416 0.05251-0.02419 0.05258-0.03669 0.07775-0.07314 0.1559-0.10938 0.23444-0.8107 1.7138-1.6163 3.4293-2.4159 5.147l2.3783-0.51185 0.12852-0.0068 0.61816 0.17278c0.0038-1.5024 0.01587-3.0038 0.03618-4.5041z"/></g><g id="text3455"><path id="path4278" d="m15.2 29.784c0.0027 0.94623 0.0079 1.8929 0.01551 2.8401l-0.2826 0.06141-0.06595-0.01666-1.6892-0.43846c-0.0079-0.94878-0.0132-1.8969-0.01587-2.8444l-4.8806-1.2932c-0.00412-0.70354-0.00598-1.4065-0.00558-2.1088 1.5123-2.6261 3.0685-5.2151 4.6253-7.7808l2.0311 0.57924 0.06687-0.01389 0.28339-0.06021c-0.05321 2.9983-0.08129 6.0014-0.08425 9.0093l1.4408-0.31006c-9.54e-4 0.68824-6.31e-4 1.3767 9.71e-4 2.0654zm-2.0139-7.0233c0.0011-0.11002 0.0027-0.25855 0.0046-0.43436 0.0082-0.18263 0.01654-0.36824 0.02502-0.55739 0.0085-0.18902 0.01695-0.36824 0.02535-0.53748 0.0147-0.17445 0.02579-0.30927 0.03335-0.4065-0.02567 0.06542-0.06715 0.15607-0.12444 0.27207-0.06363 0.12742-0.12724 0.25489-0.19081 0.38242-0.06991 0.13896-0.14284 0.27384-0.21877 0.40464-0.06643 0.11362-0.13284 0.2273-0.19922 0.34102-0.84662 1.407-1.6889 2.8223-2.5197 4.2482l3.1388 0.84376c0.0019-1.5204 0.01048-3.0392 0.02587-4.5563z"/><path id="path4280" d="m24.845 23.585c-9e-3 1.3264-0.10938 2.4666-0.3042 3.422-0.18854 0.94728-0.44958 1.7401-0.78487 2.3787-0.32905 0.63062-0.72286 1.1211-1.1825 1.4713-0.45344 0.34228-0.95071 0.57238-1.4923 0.69012-0.54158 0.11774-1.0403 0.10414-1.4962-0.04095-0.45588-0.14507-0.85057-0.46196-1.1831-0.95056-0.32626-0.49644-0.58436-1.1794-0.77197-2.048-0.18134-0.87627-0.2706-1.9834-0.26359-3.3189 0.0074-1.4012 0.10909-2.5784 0.30052-3.5301 0.1978-0.95986 0.46757-1.7476 0.80675-2.3628 0.33924-0.61531 0.74232-1.0803 1.208-1.3949 0.47208-0.32258 0.98919-0.54348 1.551-0.66283 0.52442-0.1114 1.0094-0.10335 1.4551 0.02405 0.45208 0.11953 0.83894 0.41616 1.1615 0.88997 0.32264 0.47389 0.57112 1.1497 0.74745 2.0281 0.17647 0.87217 0.25794 2.0061 0.24847 3.4048zm-2.1622 0.46368c0.0062-0.97924-0.01454-1.78-0.06429-2.4052-0.04965-0.63143-0.13404-1.1206-0.25424-1.4681-0.12009-0.35401-0.27875-0.58515-0.47647-0.69352-0.19146-0.10969-0.42763-0.13464-0.70858-0.07481-0.29968 0.06381-0.55368 0.19641-0.76188 0.39784-0.20809 0.19484-0.37721 0.49602-0.50679 0.90349-0.12956 0.4074-0.22616 0.93921-0.28863 1.595-0.05614 0.6476-0.08801 1.4556-0.09351 2.4218-0.0054 0.95312 0.02041 1.7438 0.07544 2.3697 0.05506 0.62613 0.1425 1.1209 0.26124 1.4836 0.12499 0.35488 0.28758 0.58981 0.48729 0.70468 0.19974 0.11488 0.44604 0.14061 0.73889 0.07723 0.2804-0.06068 0.52011-0.19157 0.71929-0.39263 0.1992-0.20107 0.36087-0.50582 0.48555-0.91426 0.13093-0.41641 0.22478-0.94939 0.28254-1.5992 0.06402-0.65142 0.09813-1.4527 0.10416-2.4056z"/><path id="path4282" d="m32.645 27.335c0.0016 0.93436 6e-3 1.8693 0.01334 2.8049l-2.0268-0.55974c-0.0086-0.93674-0.01399-1.8731-0.0162-2.809l-0.62014-0.17228-0.13615 0.01779-4.1322 0.8927c6.43e-4 -0.69315 0.0023-1.3861 0.0051-2.0789 1.3891-3.0056 2.7974-6.0047 4.2197-8.9987 0.05047-0.08961 0.10167-0.17862 0.15367-0.26703 0.09376-0.15138 0.18759-0.30268 0.28149-0.45388l2.3709 0.69356c-0.06618 2.9573-0.10338 5.9207-0.11161 8.8903l1.4213 0.39731c-2e-3 0.67883-0.0025 1.3581-0.0017 2.0377zm-1.9928-7.112c0.0015-0.1088 0.0035-0.25569 0.0061-0.42956 0.0088-0.18034 0.01781-0.3643 0.02697-0.55111 0.0092-0.1869 0.01831-0.36412 0.02737-0.53147 0.01536-0.17255 0.02697-0.30563 0.03493-0.40186-0.02588 0.06449-0.0676 0.15379-0.12518 0.26804-0.06394 0.12548-0.12781 0.25101-0.19163 0.37658-0.07018 0.13683-0.14331 0.26958-0.21939 0.39824-0.05775 0.09698-0.11546 0.19398-0.17314 0.29102-2.8e-5 6e-5 -0.02225 0.04827-0.02228 0.04833-0.03737 0.07906-0.07449 0.15852-0.1114 0.23839-0.80999 1.7121-1.6149 3.426-2.4138 5.142l2.3761-0.51134 0.12844-0.0066 0.62039 0.17342c0.0039-1.5024 0.01611-3.0038 0.03654-4.5041z"/></g></g></svg>
